<svg width="24" height="24" viewBox="0 0 24 24" fill="none" xmlns="http://www.w3.org/2000/svg">
<path d="M4.87118 14.5292C3.76123 13.1086 3.1 11.3218 3.1 9.38095C3.1 4.75228 6.86081 1 11.5 1C16.1392 1 19.9 4.75228 19.9 9.38095C19.9 12.8446 17.654 15.961 14.65 17.2381M4.87118 14.5292L1 20.119L4.87118 19.0714L5.4625 23L8.875 17.3446M4.87118 14.5292C5.88525 15.8271 7.27388 16.8195 8.875 17.3446M8.875 17.3446C9.70088 17.6154 10.5833 17.7619 11.5 17.7619C12.6677 17.7619 13.6396 17.6677 14.65 17.2381M14.65 17.2381L17.8 22.4762L18.5875 19.0714L22 19.8571L18.325 14.3571" stroke="#637381" stroke-width="1.5" stroke-linecap="round" stroke-linejoin="round"/>
<path d="M7 9.86957L10.0857 13L16 7" stroke="#637381" stroke-width="1.5" stroke-linecap="round" stroke-linejoin="round"/>
</svg>
