<svg width="25" height="24" viewBox="0 0 25 24" fill="none" xmlns="http://www.w3.org/2000/svg">
<path fill-rule="evenodd" clip-rule="evenodd" d="M7.60473 7.66663L7.24137 7.66663H7.23722V7.66662L1.3 7.62871V19.9399H2.91843C3.21347 18.6316 4.38082 17.6546 5.77595 17.6546C7.17109 17.6546 8.33844 18.6316 8.63348 19.9399L9.07232 19.9399L14.6356 19.9399C14.9306 18.6316 16.098 17.6546 17.4931 17.6546C18.8882 17.6546 20.0556 18.6316 20.3506 19.9399H22.7036V16.3208L20.8141 14.4322H14.2722C13.9132 14.4322 13.6222 14.1412 13.6222 13.7822V8.85087C13.6222 8.18143 13.0745 7.6414 12.4051 7.65078L11.2785 7.66657L11.2694 7.6667V7.66663L10.4839 7.66663L11.7633 9.16198C11.9967 9.43475 11.9648 9.84507 11.692 10.0784C11.4192 10.3118 11.0089 10.2799 10.7755 10.0071L9.05797 7.99969L5.89179 11.4887C5.65055 11.7546 5.23947 11.7745 4.97363 11.5333C4.70779 11.292 4.68784 10.881 4.92909 10.6151L7.60473 7.66663ZM20.3504 21.2399H23.3536C23.7126 21.2399 24.0036 20.9489 24.0036 20.5899V16.0515C24.0036 15.879 23.9351 15.7136 23.8131 15.5917L21.6309 13.4106L19.5564 8.59375C19.4537 8.35533 19.219 8.20087 18.9594 8.20087H14.8369C14.5939 7.29563 13.8556 6.59424 12.9323 6.40273C13.1182 6.13376 13.2622 5.84747 13.3588 5.55865C13.6233 4.76846 13.5714 3.76297 12.7403 3.18222C12.3001 2.87462 11.8117 2.70687 11.2998 2.76312C10.791 2.81902 10.3589 3.08524 10.0066 3.4506C9.7306 3.73689 9.48268 4.10519 9.26062 4.54128C8.99487 3.782 8.62361 3.04728 8.17118 2.45091C7.69102 1.81798 7.06309 1.26689 6.2965 1.07296C5.48744 0.868288 4.65781 1.09385 3.88842 1.75451C2.88776 2.61376 2.89407 3.91083 3.50789 5.00163C3.77705 5.47993 4.1671 5.93841 4.66432 6.35016L0.65415 6.32456C0.481044 6.32345 0.314648 6.39144 0.19185 6.51346C0.0690529 6.63547 0 6.80143 0 6.97454V20.5899C0 20.7623 0.0684819 20.9276 0.190381 21.0495C0.312279 21.1714 0.477609 21.2399 0.65 21.2399H2.91866C3.21408 22.5477 4.38119 23.5242 5.77595 23.5242C7.17072 23.5242 8.33783 22.5477 8.63325 21.2399L9.07231 21.2399L14.6358 21.2399C14.9312 22.5477 16.0983 23.5242 17.4931 23.5242C18.8879 23.5242 20.055 22.5477 20.3504 21.2399ZM9.92939 6.36664L11.1054 6.36663C11.6146 6.06959 11.9756 5.59551 12.1261 5.14606C12.2943 4.6433 12.1631 4.36483 11.9957 4.24784C11.7422 4.07073 11.5634 4.04198 11.4418 4.05534C11.317 4.06905 11.1492 4.13855 10.9425 4.35292C10.5941 4.71424 10.2408 5.37913 9.92939 6.36664ZM8.37553 6.36663L7.34994 6.36663C5.94598 5.87309 5.0472 5.08623 4.64083 4.36409C4.22967 3.63344 4.34584 3.07524 4.73533 2.74079C5.24759 2.30091 5.65384 2.25134 5.97768 2.33326C6.34398 2.42593 6.74596 2.72316 7.13549 3.23662C7.77827 4.0839 8.23365 5.31811 8.37553 6.36663ZM20.0956 13.1322L18.5316 9.50087H14.9222V13.1322H20.0956ZM5.77595 22.2242C6.67371 22.2242 7.40547 21.4945 7.40547 20.5894C7.40547 19.6843 6.67371 18.9546 5.77595 18.9546C4.8782 18.9546 4.14644 19.6843 4.14644 20.5894C4.14644 21.4945 4.8782 22.2242 5.77595 22.2242ZM19.1226 20.5894C19.1226 21.4945 18.3908 22.2242 17.4931 22.2242C16.5953 22.2242 15.8636 21.4945 15.8636 20.5894C15.8636 19.6843 16.5953 18.9546 17.4931 18.9546C18.3908 18.9546 19.1226 19.6843 19.1226 20.5894Z" fill="#637381"/>
</svg>
