<?xml version="1.0" standalone="no"?>
<!DOCTYPE svg PUBLIC "-//W3C//DTD SVG 20010904//EN"
 "http://www.w3.org/TR/2001/REC-SVG-20010904/DTD/svg10.dtd">
<svg version="1.0" xmlns="http://www.w3.org/2000/svg"
 width="1056.000000pt" height="1056.000000pt" viewBox="0 0 1056.000000 1056.000000"
 preserveAspectRatio="xMidYMid meet">
<metadata>
Created by potrace 1.11, written by Peter Selinger 2001-2013
</metadata>
<g transform="translate(0.000000,1056.000000) scale(0.100000,-0.100000)"
fill="#000000" stroke="none">
<path d="M4076 10553 c-3 -3 -24 -7 -48 -9 -24 -2 -50 -6 -58 -7 -13 -3 -62
-13 -110 -23 -8 -1 -35 -10 -60 -19 -25 -9 -54 -18 -65 -21 -11 -2 -33 -10
-50 -18 -31 -15 -54 -23 -69 -24 -5 0 -12 -4 -15 -9 -3 -4 -32 -21 -63 -38
-32 -16 -58 -34 -58 -39 0 -5 -3 -6 -6 -3 -4 4 -19 -4 -34 -16 -16 -12 -43
-33 -62 -47 -18 -13 -60 -50 -92 -82 -33 -32 -62 -58 -65 -59 -17 -1 -201
-281 -201 -305 0 -2 -9 -23 -19 -47 -11 -23 -29 -72 -40 -108 -21 -63 -26 -84
-37 -139 -3 -14 -7 -34 -11 -44 -5 -19 -9 -54 -19 -166 -8 -99 -3 -258 10
-345 13 -87 18 -113 26 -145 5 -19 11 -46 13 -60 9 -50 41 -145 87 -260 25
-62 129 -262 140 -270 4 -3 10 -14 14 -25 3 -11 17 -33 31 -49 14 -16 25 -33
25 -37 0 -4 6 -14 13 -21 6 -7 24 -31 39 -53 15 -22 38 -52 50 -67 13 -14 39
-45 58 -68 19 -24 60 -69 92 -102 32 -33 58 -61 58 -62 0 -2 -478 -3 -1062 -4
-585 0 -1069 -1 -1075 -1 -10 -1 -13 -784 -13 -3881 l0 -3880 3880 0 3880 0
-2 3882 -3 3881 -502 0 c-364 0 -501 3 -495 11 40 54 135 218 137 236 0 3 7
24 17 45 16 39 28 69 34 90 2 6 15 55 29 110 29 116 38 185 37 310 0 100 -4
142 -26 260 -8 40 -44 142 -73 205 -93 201 -237 351 -435 451 -104 52 -165 73
-313 105 -11 2 -52 6 -92 8 -40 3 -76 7 -81 10 -4 2 -14 1 -21 -4 -8 -4 -27
-4 -42 0 -16 5 -29 6 -29 2 0 -4 -26 -8 -58 -9 -31 -1 -88 -9 -127 -18 -38 -8
-80 -18 -92 -20 -75 -17 -333 -128 -341 -147 -2 -4 -10 -8 -17 -8 -8 0 -20 -6
-27 -12 -7 -7 -40 -31 -73 -53 -68 -46 -88 -61 -121 -92 -13 -13 -26 -23 -29
-23 -4 0 -45 -39 -92 -86 -47 -47 -86 -84 -87 -82 -2 2 -26 50 -55 108 -28 58
-67 132 -86 165 -19 33 -42 75 -51 93 -9 17 -20 32 -25 32 -5 0 -9 5 -9 11 0
12 -60 103 -72 107 -4 2 -8 10 -8 18 0 8 -4 14 -8 14 -4 0 -16 15 -27 33 -10
17 -24 37 -29 43 -6 6 -22 25 -36 43 -84 108 -256 282 -365 370 -38 31 -72 58
-75 62 -25 28 -370 236 -370 223 0 -3 -15 3 -32 14 -18 10 -60 29 -93 41 -33
13 -69 26 -80 31 -66 25 -183 55 -205 53 -3 -1 -12 3 -21 8 -10 5 -39 11 -65
14 -27 4 -65 9 -84 11 -47 7 -358 13 -364 7z m299 -868 c22 -4 47 -8 55 -10 8
-1 42 -10 75 -20 33 -11 62 -20 65 -20 3 -1 28 -12 55 -25 28 -13 53 -23 58
-22 4 1 7 -2 7 -8 0 -5 4 -10 9 -10 10 0 96 -50 145 -85 41 -29 177 -145 204
-175 77 -82 101 -110 132 -150 19 -25 38 -46 42 -48 5 -2 8 -9 8 -16 0 -7 9
-21 20 -31 11 -10 20 -23 20 -30 0 -7 9 -20 20 -30 11 -10 20 -24 20 -31 0 -7
3 -14 8 -16 14 -6 137 -251 172 -343 13 -33 29 -73 35 -90 18 -43 76 -225 81
-255 3 -14 7 -32 10 -40 4 -8 8 -24 10 -35 1 -11 5 -30 8 -42 13 -51 33 -153
41 -203 3 -19 7 -46 10 -60 2 -14 7 -51 10 -82 l4 -57 -82 1 c-45 1 -88 6 -94
11 -9 6 -13 6 -13 -2 0 -7 -8 -8 -23 -2 -13 5 -39 12 -58 15 -19 3 -56 10 -84
16 -27 6 -70 15 -95 20 -25 4 -57 13 -72 19 -16 6 -28 8 -28 5 0 -4 -7 0 -17
7 -9 8 -18 13 -20 11 -8 -6 -145 38 -230 74 -17 8 -34 14 -38 14 -15 0 -211
94 -232 111 -7 6 -13 8 -13 3 0 -5 -4 -4 -8 1 -4 6 -27 21 -52 35 -25 13 -49
28 -55 32 -5 5 -32 23 -60 40 -126 81 -301 239 -395 358 -102 128 -217 343
-236 440 -4 21 -9 41 -16 65 -17 54 -31 249 -19 270 3 6 6 22 7 38 1 15 3 29
4 32 1 3 3 8 5 13 1 4 5 21 10 37 29 105 143 220 250 251 99 29 240 37 340 19z
m3108 -975 c21 -12 44 -36 51 -54 17 -42 20 -126 6 -192 -6 -29 -11 -56 -11
-59 2 -13 -71 -145 -106 -192 -74 -99 -140 -162 -247 -237 -114 -79 -296 -163
-426 -196 -128 -34 -171 -42 -177 -36 -11 10 27 166 67 276 49 136 64 174 70
180 3 3 14 23 25 45 77 157 236 338 359 408 17 10 40 23 51 30 11 6 22 12 25
12 3 0 28 8 55 17 71 24 82 25 155 23 47 -2 75 -8 103 -25z m-2888 -2419
c-330 -330 -602 -607 -605 -615 -4 -12 -5 -1190 -1 -1204 1 -2 386 382 856
852 471 471 858 856 860 856 3 0 4 -1196 3 -2657 l-3 -2658 -1720 0 -1720 0
-1 3013 -1 3012 1466 0 1466 0 -600 -599z m3702 -2419 l0 -3019 -861 1 -861 1
-1 2667 0 2667 428 -428 c236 -235 430 -425 431 -422 2 3 3 276 3 606 l-1 601
-168 167 c-92 91 -167 169 -167 172 0 3 269 5 599 5 l598 0 0 -3018z"/>
</g>
</svg>
